<svg xmlns="http://www.w3.org/2000/svg" viewBox="0 0 800 600" role="img" aria-labelledby="hgT hgD">
<title id="hgT">Heningan Group — a house of food brands</title>
<desc id="hgD">A wood-fired pizza from Heningan Pizza, with space for the brands still to join the group.</desc>
<style>
.k{font:600 11px system-ui,sans-serif;fill:#0a7880;letter-spacing:.16em}
.br{font:600 13px Georgia,'Source Serif 4',serif;fill:#0a2540}
.sm{font:400 10px system-ui,sans-serif;fill:#8a99a6}
.soon{font:600 10px system-ui,sans-serif;fill:#a9b6bf;letter-spacing:.1em}
</style>
<rect width="800" height="600" fill="#f6f2ea"/>
<circle cx="300" cy="252" r="240" fill="#efe6d6"/>
<g transform="translate(300 252)">
  <circle r="164" fill="#e9c98d"/>
  <circle r="150" fill="#f3ddb0"/>
  <circle r="132" fill="#d94f3d"/>
  <circle r="126" fill="#e8674f"/>
  <g fill="#fdf6e6" opacity=".92">
    <ellipse cx="-52" cy="-40" rx="26" ry="19" transform="rotate(-18 -52 -40)"/>
    <ellipse cx="44" cy="-58" rx="22" ry="16" transform="rotate(12 44 -58)"/>
    <ellipse cx="66" cy="34" rx="25" ry="18" transform="rotate(-8 66 34)"/>
    <ellipse cx="-38" cy="56" rx="23" ry="17" transform="rotate(22 -38 56)"/>
    <ellipse cx="6" cy="-4" rx="20" ry="15"/>
  </g>
  <g fill="#8f2b25">
    <circle cx="-84" cy="6" r="15"/><circle cx="18" cy="-72" r="14"/><circle cx="88" cy="-16" r="14"/>
    <circle cx="-16" cy="86" r="14"/><circle cx="54" cy="76" r="12"/>
  </g>
  <g fill="#3f7d3a" opacity=".9">
    <path d="M-108 -58q14 -14 28 0-14 14-28 0z"/><path d="M96 62q14 -14 28 0-14 14-28 0z"/>
    <path d="M-46 -96q14 -14 28 0-14 14-28 0z"/>
  </g>
  <g stroke="#c9954f" stroke-width="2" opacity=".5">
    <line x1="0" y1="0" x2="0" y2="-150"/><line x1="0" y1="0" x2="130" y2="-75"/><line x1="0" y1="0" x2="130" y2="75"/>
    <line x1="0" y1="0" x2="0" y2="150"/><line x1="0" y1="0" x2="-130" y2="75"/><line x1="0" y1="0" x2="-130" y2="-75"/>
  </g>
</g>
<g transform="translate(486 96)" opacity=".75">
  <path d="M0 30q30 -46 60 0" fill="none" stroke="#cfc2ad" stroke-width="5" stroke-linecap="round"/>
  <path d="M24 12q26 -44 56 2" fill="none" stroke="#cfc2ad" stroke-width="5" stroke-linecap="round"/>
</g>
<text x="556" y="230" class="k">THE HENINGAN GROUP</text>
<g transform="translate(556 250)">
  <rect width="200" height="66" rx="4" fill="#fff" stroke="#e2d9c8"/>
  <circle cx="34" cy="33" r="16" fill="#d94f3d"/><path d="M27 33h14M34 26v14" stroke="#fff" stroke-width="2.5"/>
  <text x="62" y="30" class="br">Heningan Pizza</text><text x="62" y="48" class="sm">Wood-fired · available now</text>
</g>
<g transform="translate(556 328)">
  <rect width="200" height="52" rx="4" fill="none" stroke="#ded4c2" stroke-dasharray="5 5"/>
  <text x="100" y="31" class="soon" text-anchor="middle">NEXT BRAND · COMING</text>
</g>
<g transform="translate(556 392)">
  <rect width="200" height="52" rx="4" fill="none" stroke="#e6ded0" stroke-dasharray="5 5"/>
  <text x="100" y="31" class="soon" text-anchor="middle" opacity=".7">AND MORE AFTER THAT</text>
</g>
<text x="556" y="486" class="sm">One kitchen philosophy. A growing table.</text>
</svg>
