<svg xmlns="http://www.w3.org/2000/svg" viewBox="0 0 800 600" role="img" aria-labelledby="hlT hlD">
<title id="hlT">Digital-first shipping agency and single bill landbridge</title>
<desc id="hlD">A vessel discharging at port, cargo moving inland by rail and road, with one bill of lading covering the whole movement, shown inside a browser window.</desc>
<style>
.k{font:600 10px system-ui,sans-serif;fill:#0a7880;letter-spacing:.14em}
.lb{font:600 11px system-ui,sans-serif;fill:#0a2540}
.sm{font:400 10px system-ui,sans-serif;fill:#7b8b98}
.doc{font:600 12px system-ui,sans-serif;fill:#0a2540}
.url{font:400 10px system-ui,sans-serif;fill:#9dc9ce}
</style>
<rect width="800" height="600" fill="#f2f7f8"/>

<rect x="48" y="60" width="704" height="420" rx="8" fill="#fff" stroke="#dbe4e8"/>
<rect x="48" y="60" width="704" height="34" rx="8" fill="#0a2540"/><rect x="48" y="82" width="704" height="12" fill="#0a2540"/>
<circle cx="70" cy="77" r="4" fill="#4a6076"/><circle cx="84" cy="77" r="4" fill="#4a6076"/><circle cx="98" cy="77" r="4" fill="#4a6076"/>
<rect x="118" y="69" width="200" height="16" rx="8" fill="#13314f"/>
<text x="130" y="81" class="url">ops.kalsadermaga.com</text>

<rect x="48" y="94" width="704" height="386" fill="#fbfdfd"/>
<rect x="48" y="300" width="230" height="180" fill="#e4eef1"/>
<path d="M48 300 h230 v18 h-230z" fill="#d5e5e9"/>

<g transform="translate(80 232)">
  <rect x="26" y="18" width="26" height="20" fill="#0e9aa3"/><rect x="54" y="18" width="26" height="20" fill="#0a2540"/>
  <rect x="82" y="18" width="26" height="20" fill="#edbb00"/><rect x="40" y="-2" width="26" height="20" fill="#0a2540"/>
  <rect x="68" y="-2" width="26" height="20" fill="#0e9aa3"/>
  <path d="M8 38 h136 l-18 34 H26 Z" fill="#123a5c"/>
  <rect x="112" y="4" width="16" height="34" fill="#123a5c"/><rect x="114" y="-6" width="12" height="12" fill="#0e9aa3"/>
</g>
<g stroke="#b9ccd3" stroke-width="2" fill="none">
<path d="M48 316 q14 -6 28 0 t28 0 t28 0 t28 0 t28 0 t28 0 t28 0 t28 0"/>
<path d="M48 336 q14 -6 28 0 t28 0 t28 0 t28 0 t28 0 t28 0 t28 0 t28 0"/>
</g>

<g transform="translate(300 196)" fill="none" stroke="#0a2540" stroke-width="4">
  <path d="M0 120 V26"/><path d="M0 26 h74"/><path d="M0 46 l40 -20"/><path d="M74 26 v22"/>
</g>
<text x="300" y="336" class="lb">Port</text><text x="300" y="352" class="sm">Agency &amp; documents</text>

<g transform="translate(392 268)">
  <rect x="0" y="0" width="118" height="42" rx="4" fill="#0a2540"/>
  <rect x="8" y="8" width="24" height="16" rx="2" fill="#9dc9ce"/><rect x="38" y="8" width="24" height="16" rx="2" fill="#9dc9ce"/>
  <rect x="68" y="8" width="24" height="16" rx="2" fill="#9dc9ce"/>
  <circle cx="24" cy="48" r="7" fill="#123a5c"/><circle cx="60" cy="48" r="7" fill="#123a5c"/><circle cx="96" cy="48" r="7" fill="#123a5c"/>
</g>
<line x1="380" y1="326" x2="560" y2="326" stroke="#0e9aa3" stroke-width="3"/>
<g stroke="#a9cfd2" stroke-width="2">
<line x1="396" y1="320" x2="396" y2="332"/><line x1="424" y1="320" x2="424" y2="332"/><line x1="452" y1="320" x2="452" y2="332"/>
<line x1="480" y1="320" x2="480" y2="332"/><line x1="508" y1="320" x2="508" y2="332"/><line x1="536" y1="320" x2="536" y2="332"/>
</g>
<text x="392" y="352" class="lb">Rail · ECRL</text>

<g transform="translate(586 264)">
  <rect x="0" y="6" width="76" height="40" rx="3" fill="#0e9aa3"/>
  <path d="M76 16 h26 l18 20 v10 H76 Z" fill="#0a2540"/>
  <rect x="84" y="20" width="22" height="14" rx="2" fill="#9dc9ce"/>
  <circle cx="24" cy="52" r="8" fill="#123a5c"/><circle cx="98" cy="52" r="8" fill="#123a5c"/>
</g>
<text x="586" y="352" class="lb">Road</text><text x="586" y="368" class="sm">Final delivery</text>

<line x1="80" y1="392" x2="704" y2="392" stroke="#e2eaee" stroke-width="2"/>
<circle cx="120" cy="392" r="7" fill="#0e9aa3"/><circle cx="320" cy="392" r="7" fill="#0e9aa3"/>
<circle cx="470" cy="392" r="7" fill="#0e9aa3"/><circle cx="646" cy="392" r="7" fill="#0e9aa3"/>
<text x="120" y="418" class="k" text-anchor="middle">SEA</text><text x="320" y="418" class="k" text-anchor="middle">PORT</text>
<text x="470" y="418" class="k" text-anchor="middle">RAIL</text><text x="646" y="418" class="k" text-anchor="middle">ROAD</text>
<text x="392" y="448" class="sm" text-anchor="middle">Booked, documented and tracked in one place</text>

<g transform="translate(500 452)">
  <rect x="0" y="0" width="252" height="104" rx="6" fill="#0a2540"/>
  <text x="20" y="30" class="k" fill="#63c6cc">ONE BILL OF LADING</text>
  <rect x="20" y="44" width="150" height="6" rx="3" fill="#2a4a68"/>
  <rect x="20" y="58" width="186" height="6" rx="3" fill="#2a4a68"/>
  <rect x="20" y="72" width="120" height="6" rx="3" fill="#2a4a68"/>
  <circle cx="216" cy="68" r="18" fill="#0e9aa3"/>
  <path d="M208 68l6 6 11-13" stroke="#fff" stroke-width="3" fill="none" stroke-linecap="round" stroke-linejoin="round"/>
</g>
</svg>
