<svg xmlns="http://www.w3.org/2000/svg" viewBox="0 0 800 600" role="img" aria-labelledby="lsT lsD">
<title id="lsT">Little Marine Scientists at the shoreline</title>
<desc id="lsD">Children exploring a tidepool along the coast with nets and collecting buckets.</desc>
<style>.k{font:600 11px system-ui,sans-serif;fill:#0a7880;letter-spacing:.14em}</style>
<rect width="800" height="600" fill="#eaf6f8"/>
<circle cx="646" cy="112" r="52" fill="#edbb00" opacity=".55"/>
<path d="M0 300h800v300H0z" fill="#a8dbe0"/>
<path d="M0 300q100-18 200 0t200 0 200 0 200 0v40H0z" fill="#7ecdd4"/>
<g fill="#fff" opacity=".55">
<path d="M60 356q22-12 44 0t44 0"/><path d="M300 392q22-12 44 0t44 0"/>
</g>
<g stroke="#fff" stroke-width="4" fill="none" opacity=".6" stroke-linecap="round">
<path d="M70 352q20-14 40 0t40 0"/><path d="M330 396q20-14 40 0t40 0"/><path d="M560 366q20-14 40 0t40 0"/>
</g>
<path d="M0 430q120-30 260-16t260-6 280-14v206H0z" fill="#f0e2c4"/>
<path d="M0 470q140-24 280-8t260-10 260-12v160H0z" fill="#e6d3ae"/>

<g transform="translate(238 316)">
  <ellipse cx="0" cy="120" rx="120" ry="34" fill="#6fc3cb"/>
  <ellipse cx="0" cy="120" rx="120" ry="34" fill="none" stroke="#d8c8a4" stroke-width="6"/>
  <circle cx="-46" cy="122" r="7" fill="#f2a06b"/><circle cx="34" cy="130" r="6" fill="#e7739b"/>
  <path d="M62 112l6 12-12 4z" fill="#f7c76a"/>
</g>

<g transform="translate(180 300)">
  <circle cx="0" cy="0" r="26" fill="#f4c9a3"/>
  <path d="M-26 -4a26 26 0 0 1 52 0z" fill="#3d2b20"/>
  <path d="M-22 30h44l10 76h-64z" fill="#0e9aa3"/>
  <rect x="-14" y="106" width="12" height="34" rx="5" fill="#f4c9a3"/><rect x="4" y="106" width="12" height="34" rx="5" fill="#f4c9a3"/>
  <path d="M22 44l52 -30" stroke="#f4c9a3" stroke-width="11" stroke-linecap="round"/>
  <g transform="translate(78 6) rotate(28)">
    <rect x="-3" y="0" width="6" height="54" rx="3" fill="#8a5a33"/>
    <ellipse cx="0" cy="-12" rx="22" ry="16" fill="none" stroke="#0a2540" stroke-width="4"/>
    <path d="M-18 -12h36M0 -28v32" stroke="#9db4d1" stroke-width="2"/>
  </g>
</g>

<g transform="translate(392 328)">
  <circle cx="0" cy="0" r="24" fill="#e8b489"/>
  <path d="M-24 -2a24 24 0 0 1 48 0z" fill="#1f1a16"/>
  <path d="M-20 28h40l9 70h-58z" fill="#d6006c" opacity=".85"/>
  <rect x="-13" y="98" width="11" height="32" rx="5" fill="#e8b489"/><rect x="3" y="98" width="11" height="32" rx="5" fill="#e8b489"/>
  <path d="M-20 40l-40 22" stroke="#e8b489" stroke-width="10" stroke-linecap="round"/>
  <g transform="translate(-74 56)">
    <path d="M0 0h34l-5 30H5z" fill="#edbb00"/>
    <path d="M0 0q17 -16 34 0" fill="none" stroke="#c99f00" stroke-width="3"/>
  </g>
</g>

<g transform="translate(596 452)">
  <path d="M0 0l7 20 21 1-16 14 5 21-17-12-17 12 5-21-16-14 21-1z" fill="#f2a06b"/>
</g>
<g transform="translate(672 500)"><circle r="10" fill="#fff" opacity=".8"/><circle r="5" fill="#e6d3ae"/></g>
<text x="400" y="566" class="k" text-anchor="middle">CURIOSITY BEGINS AT THE WATER'S EDGE</text>
</svg>
