<svg xmlns="http://www.w3.org/2000/svg" viewBox="0 0 640 400" role="img" aria-labelledby="opT opD">
<title id="opT">ops.kalsadermaga.com</title><desc id="opD">Illustration of the single bill landbridge platform showing one consignment tracked across sea, rail and road legs.</desc>
<style>.u{font:400 10px system-ui,sans-serif;fill:#8a99a6}.h{font:600 11px system-ui,sans-serif;fill:#0a2540}.c{font:400 11px system-ui,sans-serif;fill:#3d4d5a}.k{font:600 9px system-ui,sans-serif;fill:#0a7880;letter-spacing:.1em}.b{font:600 9px system-ui,sans-serif;fill:#fff}</style>
<rect width="640" height="400" fill="#eef3f5"/>
<rect x="24" y="24" width="592" height="352" rx="6" fill="#fff"/>
<rect x="24" y="24" width="592" height="34" rx="6" fill="#0a2540"/><rect x="24" y="46" width="592" height="12" fill="#0a2540"/>
<circle cx="44" cy="41" r="4" fill="#4a6076"/><circle cx="58" cy="41" r="4" fill="#4a6076"/><circle cx="72" cy="41" r="4" fill="#4a6076"/>
<rect x="92" y="33" width="200" height="16" rx="8" fill="#13314f"/><text x="104" y="45" class="u" fill="#9dc9ce">ops.kalsadermaga.com</text>
<text x="48" y="86" class="k">CONSIGNMENT KD-2026-0417</text>
<text x="48" y="108" class="h" font-size="14">One bill of lading · Port Klang → Kuantan</text>
<line x1="48" y1="124" x2="592" y2="124" stroke="#e2eaee"/>
<line x1="72" y1="176" x2="568" y2="176" stroke="#dfe6ea" stroke-width="4"/>
<line x1="72" y1="176" x2="320" y2="176" stroke="#0e9aa3" stroke-width="4"/>
<g><circle cx="72" cy="176" r="10" fill="#0e9aa3"/><text x="72" y="208" class="h" text-anchor="middle">Sea</text><text x="72" y="224" class="u" text-anchor="middle">Discharged</text></g>
<g><circle cx="196" cy="176" r="10" fill="#0e9aa3"/><text x="196" y="208" class="h" text-anchor="middle">Port Klang</text><text x="196" y="224" class="u" text-anchor="middle">Customs cleared</text></g>
<g><circle cx="320" cy="176" r="10" fill="#0e9aa3"/><text x="320" y="208" class="h" text-anchor="middle">Rail · ECRL</text><text x="320" y="224" class="u" text-anchor="middle">In transit</text></g>
<g><circle cx="444" cy="176" r="10" fill="#fff" stroke="#c3ced5" stroke-width="3"/><text x="444" y="208" class="h" text-anchor="middle" fill="#8a99a6">Kuantan Port</text><text x="444" y="224" class="u" text-anchor="middle">Pending</text></g>
<g><circle cx="568" cy="176" r="10" fill="#fff" stroke="#c3ced5" stroke-width="3"/><text x="568" y="208" class="h" text-anchor="middle" fill="#8a99a6">Delivery</text><text x="568" y="224" class="u" text-anchor="middle">Pending</text></g>
<rect x="286" y="140" width="68" height="16" rx="2" fill="#0a2540"/><text x="320" y="152" class="b" text-anchor="middle">NOW</text>
<rect x="48" y="264" width="264" height="88" rx="4" fill="#f2f7f8"/>
<text x="64" y="286" class="k">DOCUMENTS</text>
<text x="64" y="308" class="c">Bill of lading · issued</text>
<text x="64" y="326" class="c">Customs declaration · cleared</text>
<text x="64" y="344" class="c">Rail manifest · lodged</text>
<rect x="328" y="264" width="264" height="88" rx="4" fill="#f2f7f8"/>
<text x="344" y="286" class="k">ACCOUNTABILITY</text>
<text x="344" y="308" class="c">One operator end to end</text>
<text x="344" y="326" class="c">One invoice, one contract</text>
<text x="344" y="344" class="c">No handover gaps</text>
</svg>
