<svg xmlns="http://www.w3.org/2000/svg" viewBox="0 0 640 400" role="img" aria-labelledby="pcT pcD">
<title id="pcT">portcalls.kalsadermaga.com — book a shipping agent</title>
<desc id="pcD">Illustration of the booking form on the shipping agency platform: vessel, port, ETA and services required, submitted in one step for ad hoc or regular port calls.</desc>
<style>
.u{font:400 10px system-ui,sans-serif;fill:#8a99a6}
.lb{font:600 9px system-ui,sans-serif;fill:#7b8b98;letter-spacing:.06em}
.fv{font:400 12px system-ui,sans-serif;fill:#0a2540}
.h{font:600 15px Georgia,'Source Serif 4',serif;fill:#0a2540}
.k{font:600 9px system-ui,sans-serif;fill:#0a7880;letter-spacing:.1em}
.b{font:600 11px system-ui,sans-serif;fill:#fff;letter-spacing:.04em}
.n{font:400 10px system-ui,sans-serif;fill:#5b6b7a}
.c{font:400 11px system-ui,sans-serif;fill:#3d4d5a}
</style>
<rect width="640" height="400" fill="#eef3f5"/>
<rect x="24" y="24" width="592" height="352" rx="6" fill="#fff"/>
<rect x="24" y="24" width="592" height="34" rx="6" fill="#0a2540"/><rect x="24" y="46" width="592" height="12" fill="#0a2540"/>
<circle cx="44" cy="41" r="4" fill="#4a6076"/><circle cx="58" cy="41" r="4" fill="#4a6076"/><circle cx="72" cy="41" r="4" fill="#4a6076"/>
<rect x="92" y="33" width="220" height="16" rx="8" fill="#13314f"/>
<text x="104" y="45" class="u" fill="#9dc9ce">portcalls.kalsadermaga.com</text>

<text x="48" y="84" class="k">REQUEST AN AGENT</text>
<text x="48" y="106" class="h">Book a shipping agent in one form</text>

<g><text x="48" y="132" class="lb">VESSEL</text>
<rect x="48" y="138" width="248" height="26" rx="3" fill="#f6f9fa" stroke="#dbe4e8"/><text x="58" y="156" class="fv">MV Selat Emas</text></g>
<g><text x="316" y="132" class="lb">PORT</text>
<rect x="316" y="138" width="128" height="26" rx="3" fill="#f6f9fa" stroke="#dbe4e8"/><text x="326" y="156" class="fv">Kuantan</text>
<path d="M430 149l4 5 4-5" stroke="#8a99a6" stroke-width="1.5" fill="none"/></g>
<g><text x="464" y="132" class="lb">ETA</text>
<rect x="464" y="138" width="128" height="26" rx="3" fill="#f6f9fa" stroke="#dbe4e8"/><text x="474" y="156" class="fv">21 Jul · 06:00</text></g>

<text x="48" y="192" class="lb">SERVICES REQUIRED</text>
<g>
<rect x="48" y="200" width="13" height="13" rx="2" fill="#0e9aa3"/><path d="M51 206.5l3 3 5-5.5" stroke="#fff" stroke-width="2" fill="none" stroke-linecap="round"/>
<text x="70" y="211" class="c">Port call attendance</text>
<rect x="230" y="200" width="13" height="13" rx="2" fill="#0e9aa3"/><path d="M233 206.5l3 3 5-5.5" stroke="#fff" stroke-width="2" fill="none" stroke-linecap="round"/>
<text x="252" y="211" class="c">Documentation &amp; customs</text>
<rect x="440" y="200" width="13" height="13" rx="2" fill="#fff" stroke="#c3ced5" stroke-width="1.5"/>
<text x="462" y="211" class="c">Crew change</text>
</g>
<g>
<rect x="48" y="226" width="13" height="13" rx="2" fill="#0e9aa3"/><path d="M51 232.5l3 3 5-5.5" stroke="#fff" stroke-width="2" fill="none" stroke-linecap="round"/>
<text x="70" y="237" class="c">Bunkering</text>
<rect x="230" y="226" width="13" height="13" rx="2" fill="#fff" stroke="#c3ced5" stroke-width="1.5"/>
<text x="252" y="237" class="c">Husbandry &amp; supplies</text>
<rect x="440" y="226" width="13" height="13" rx="2" fill="#fff" stroke="#c3ced5" stroke-width="1.5"/>
<text x="462" y="237" class="c">Onward landbridge</text>
</g>

<rect x="48" y="266" width="180" height="34" rx="3" fill="#0e9aa3"/>
<text x="138" y="288" class="b" text-anchor="middle">SUBMIT REQUEST</text>
<text x="244" y="288" class="n">Ad hoc calls welcome — no account needed.</text>

<line x1="48" y1="318" x2="592" y2="318" stroke="#e2eaee"/>
<g><circle cx="56" cy="344" r="9" fill="#e6f7f7"/><path d="M52 344l3 3 5-6" stroke="#0e9aa3" stroke-width="2" fill="none" stroke-linecap="round"/>
<text x="72" y="348" class="c">You fill the form. We handle the vessel, the paperwork and the port.</text></g>
</svg>
