<svg xmlns="http://www.w3.org/2000/svg" viewBox="0 0 800 600" role="img" aria-labelledby="ssT ssD">
<title id="ssT">Our Sports Club — sport as a social space</title>
<desc id="ssD">Members talking together beside a court after a game, with connections drawn between them.</desc>
<style>
.k{font:600 11px system-ui,sans-serif;fill:#0a7880;letter-spacing:.16em}
.lb{font:600 12px system-ui,sans-serif;fill:#0a2540}
.sm{font:400 10px system-ui,sans-serif;fill:#8a99a6}
</style>
<rect width="800" height="600" fill="#f2f7f8"/>
<g transform="translate(0 60)">
  <path d="M120 300 L680 300 L760 120 L40 120 Z" fill="#d9e8ea"/>
  <path d="M120 300 L680 300 L760 120 L40 120 Z" fill="none" stroke="#fff" stroke-width="4"/>
  <path d="M400 300 L400 120" stroke="#fff" stroke-width="4"/>
  <path d="M186 258 L614 258" stroke="#fff" stroke-width="3"/>
  <path d="M256 176 L544 176" stroke="#fff" stroke-width="3"/>
  <rect x="392" y="112" width="16" height="16" fill="#0e9aa3"/>
</g>

<g stroke="#0e9aa3" stroke-width="2" stroke-dasharray="6 6" fill="none" opacity=".8">
  <path d="M212 452 Q300 388 388 452"/>
  <path d="M388 452 Q484 386 580 452"/>
  <path d="M212 452 Q396 340 580 452"/>
</g>

<g transform="translate(212 452)">
  <circle cy="-104" r="30" fill="#f4c9a3"/><path d="M-30 -108a30 30 0 0 1 60 0z" fill="#2f2118"/>
  <path d="M-30 -66h60l14 82h-88z" fill="#0a2540"/>
  <circle cy="-40" r="9" fill="none" stroke="#0e9aa3" stroke-width="3"/>
</g>
<g transform="translate(388 452)">
  <circle cy="-116" r="30" fill="#e8b489"/><path d="M-30 -120a30 30 0 0 1 60 0z" fill="#4a3120"/>
  <path d="M-30 -78h60l14 94h-88z" fill="#0e9aa3"/>
  <path d="M28 -60l42 -26" stroke="#e8b489" stroke-width="12" stroke-linecap="round"/>
  <g transform="translate(78 -96) rotate(24)">
    <rect x="-3" y="0" width="6" height="46" rx="3" fill="#8a5a33"/>
    <ellipse cx="0" cy="-16" rx="20" ry="26" fill="none" stroke="#0a2540" stroke-width="4"/>
    <path d="M-16 -30h32M-18 -16h36M-16 -2h32M0 -42v50" stroke="#c3d4d8" stroke-width="1.5"/>
  </g>
</g>
<g transform="translate(580 452)">
  <circle cy="-100" r="28" fill="#c98d63"/><path d="M-28 -104a28 28 0 0 1 56 0z" fill="#241a12"/>
  <path d="M-28 -64h56l13 80h-82z" fill="#d6006c" opacity=".85"/>
  <circle cy="-38" r="9" fill="none" stroke="#fff" stroke-width="3"/>
</g>

<g transform="translate(690 512)">
  <circle r="30" fill="#fff" stroke="#c3ced5" stroke-width="2"/>
  <path d="M0 -30 L14 -12 L8 10 H-8 L-14 -12 Z" fill="#0a2540"/>
  <path d="M-30 0 L-12 -8M30 0 L12 -8M0 30 L-8 12M0 30 L8 12" stroke="#0a2540" stroke-width="2"/>
</g>
<g transform="translate(108 508)">
  <circle r="26" fill="#fff" stroke="#c3ced5" stroke-width="2"/>
  <path d="M-26 0h52M0 -26v52" stroke="#dfe6ea" stroke-width="2"/>
  <path d="M0 -26 l16 12 -6 19h-20l-6-19z" fill="#0a2540"/>
</g>

<text x="400" y="556" class="k" text-anchor="middle">PLAY FIRST. TALK AFTER. THAT IS THE POINT.</text>
</svg>
